<svg width="129" height="21" viewBox="0 0 129 21" fill="none" xmlns="http://www.w3.org/2000/svg">
<path d="M12.9366 2.46371C13.3365 2.46371 13.6495 2.35887 13.8929 2.13172C14.1363 1.90457 14.2581 1.625 14.2581 1.25806C14.2581 0.891129 14.1363 0.576613 13.8929 0.349462C13.6495 0.122312 13.3365 0 12.9366 0H1.33886C0.95633 0 0.643349 0.122312 0.38253 0.366935C0.121712 0.611559 0 0.943548 0 1.32796V18.7836C0 19.168 0.121712 19.4825 0.38253 19.7446C0.643349 20.0067 0.95633 20.129 1.33886 20.129H12.9366C13.3365 20.129 13.6495 20.0067 13.8929 19.7796C14.1363 19.5524 14.2581 19.2379 14.2581 18.871C14.2581 18.504 14.1363 18.2245 13.8929 17.9973C13.6495 17.7702 13.3365 17.6653 12.9366 17.6653H2.67773V11.2177H10.0328C10.4327 11.2177 10.7457 11.0954 10.9891 10.8683C11.2326 10.6411 11.3543 10.3441 11.3543 9.97715C11.3543 9.61022 11.2326 9.31317 10.9891 9.08602C10.7457 8.85887 10.4327 8.73656 10.0328 8.73656H2.67773V2.48118H12.9366V2.46371Z" fill="#FEFEFE"/>
<path d="M23.1448 17.543H22.4744C22.0757 17.543 21.7677 17.3333 21.514 16.9315C21.2603 16.5121 21.1335 15.9879 21.1335 15.3589V1.29301C21.1335 0.908603 21.0066 0.611559 20.7529 0.366935C20.4993 0.122312 20.1912 0 19.7926 0C19.3939 0 19.0859 0.122312 18.8322 0.366935C18.5785 0.611559 18.4517 0.908603 18.4517 1.29301V15.3589C18.4517 16.2849 18.6147 17.1062 18.959 17.8226C19.3033 18.539 19.7744 19.0981 20.3724 19.5175C20.9704 19.9368 21.6771 20.129 22.4562 20.129H22.5106C23.0361 20.129 23.4891 20.0067 23.8153 19.7621C24.1595 19.5175 24.3226 19.2204 24.3226 18.836C24.3226 18.4516 24.2139 18.1546 23.9965 17.9099C23.779 17.6653 23.4891 17.543 23.1267 17.543H23.1448Z" fill="#FEFEFE"/>
<path d="M28.5162 0C28.054 0 27.6775 0.171164 27.3351 0.496378C27.0099 0.821592 26.8387 1.21527 26.8387 1.67742C26.8387 2.13956 27.0099 2.51613 27.3351 2.85846C27.6603 3.18367 28.054 3.35484 28.5162 3.35484C28.9783 3.35484 29.3549 3.18367 29.6972 2.85846C30.0395 2.53325 30.1936 2.13956 30.1936 1.67742C30.1936 1.21527 30.0224 0.838709 29.6972 0.496378C29.372 0.171164 28.9783 0 28.5162 0Z" fill="#FEFEFE"/>
<path d="M28.9271 5.87109C28.5605 5.87109 28.2606 5.99477 28.0273 6.24212C27.794 6.48947 27.6774 6.8075 27.6774 7.21386V18.8041C27.6774 19.1928 27.794 19.5108 28.0273 19.7581C28.2606 20.0055 28.5605 20.1292 28.9271 20.1292C29.2937 20.1292 29.6103 20.0055 29.8436 19.7581C30.0769 19.5108 30.1935 19.1928 30.1935 18.8041V7.21386C30.1935 6.8075 30.0769 6.48947 29.8436 6.24212C29.6103 5.99477 29.3104 5.87109 28.9271 5.87109Z" fill="#FEFEFE"/>
<path d="M41.6188 17.5628H40.7161C40.1564 17.5628 39.6689 17.3373 39.2717 16.8691C38.8745 16.4009 38.694 15.8459 38.694 15.1523V8.83987H40.9508C41.3299 8.83987 41.6188 8.73582 41.8535 8.52772C42.0882 8.31962 42.1965 8.05949 42.1965 7.76469C42.1965 7.46988 42.0882 7.15772 41.8535 6.94962C41.6188 6.74152 41.3299 6.63747 40.9508 6.63747H38.694V2.96102C38.694 2.5795 38.5676 2.2847 38.3148 2.04191C38.0621 1.79913 37.7551 1.67773 37.3579 1.67773C36.9607 1.67773 36.6538 1.79913 36.4011 2.04191C36.1483 2.2847 36.0219 2.5795 36.0219 2.96102V6.63747H34.7942C34.4151 6.63747 34.1262 6.74152 33.8915 6.94962C33.6568 7.15772 33.5485 7.43519 33.5485 7.76469C33.5485 8.09418 33.6568 8.31962 33.8915 8.52772C34.1262 8.73582 34.4151 8.83987 34.7942 8.83987H36.0219V15.1523C36.0219 16.0887 36.2205 16.9385 36.6358 17.6842C37.051 18.4299 37.6107 19.0195 38.3148 19.4704C39.0189 19.9039 39.8314 20.1293 40.7161 20.1293H41.2035C41.6729 20.1293 42.034 20.008 42.341 19.7652C42.6298 19.5224 42.7743 19.2276 42.7743 18.8461C42.7743 18.4645 42.6659 18.1697 42.4493 17.9269C42.2326 17.6842 41.9618 17.5628 41.6368 17.5628H41.6188Z" fill="#FEFEFE"/>
<path d="M67.6401 0.0174577C67.4484 0.0174577 67.2742 0.0523731 67.0999 0.139663C66.9256 0.209495 66.734 0.366617 66.5423 0.558654L58.0384 9.07814V1.34426C58.0384 0.960188 57.9165 0.645944 57.6551 0.384075C57.3937 0.122205 57.08 0 56.6967 0C56.3133 0 56.017 0.122205 55.7557 0.384075C55.4943 0.645944 55.3549 0.960188 55.3549 1.34426V18.7848C55.3549 19.1688 55.4943 19.4831 55.7557 19.745C56.017 20.0068 56.3307 20.129 56.6967 20.129C57.0626 20.129 57.3937 20.0068 57.6551 19.745C57.9165 19.4831 58.0384 19.1688 58.0384 18.7848V12.5697L59.8856 10.7192L66.3854 19.5529C66.6468 19.937 67.0128 20.1116 67.4833 20.1116C67.9538 20.1116 68.0932 19.9894 68.3023 19.7624C68.5114 19.5355 68.6334 19.2561 68.6682 18.907C68.7031 18.5578 68.616 18.261 68.4068 17.9642L61.7153 8.85119L68.2674 2.25208C68.5463 1.95529 68.7031 1.64105 68.7554 1.29189C68.8076 0.942729 68.7554 0.628486 68.5462 0.384075C68.3371 0.139663 68.0409 0 67.6227 0L67.6401 0.0174577Z" fill="#FEFEFE"/>
<path d="M76.8222 17.543H76.1517C75.7531 17.543 75.445 17.3333 75.1914 16.9315C74.9377 16.5121 74.8108 15.9879 74.8108 15.3589V1.29301C74.8108 0.908603 74.684 0.611559 74.4303 0.366935C74.1766 0.122312 73.8686 0 73.4699 0C73.0713 0 72.7632 0.122312 72.5096 0.366935C72.2559 0.611559 72.129 0.908603 72.129 1.29301V15.3589C72.129 16.2849 72.2921 17.1062 72.6364 17.8226C72.9807 18.539 73.4518 19.0981 74.0498 19.5175C74.6478 19.9368 75.3544 20.129 76.1336 20.129H76.188C76.7135 20.129 77.1665 20.0067 77.4926 19.7621C77.8369 19.5175 78 19.2204 78 18.836C78 18.4516 77.8913 18.1546 77.6738 17.9099C77.4564 17.6653 77.1665 17.543 76.8041 17.543H76.8222Z" fill="#FEFEFE"/>
<path d="M82.6046 5.87109C82.238 5.87109 81.9381 5.99477 81.7048 6.24212C81.4715 6.48947 81.3549 6.8075 81.3549 7.21386V18.8041C81.3549 19.1928 81.4715 19.5108 81.7048 19.7581C81.9381 20.0055 82.238 20.1292 82.6046 20.1292C82.9712 20.1292 83.2878 20.0055 83.5211 19.7581C83.7543 19.5108 83.871 19.1928 83.871 18.8041V7.21386C83.871 6.8075 83.7543 6.48947 83.5211 6.24212C83.2878 5.99477 82.9878 5.87109 82.6046 5.87109Z" fill="#FEFEFE"/>
<path d="M83.0323 0C82.5701 0 82.1936 0.171164 81.8512 0.496378C81.526 0.821592 81.3549 1.21527 81.3549 1.67742C81.3549 2.13956 81.526 2.51613 81.8512 2.85846C82.1765 3.20079 82.5701 3.35484 83.0323 3.35484C83.4944 3.35484 83.871 3.18367 84.2133 2.85846C84.5556 2.53325 84.7097 2.13956 84.7097 1.67742C84.7097 1.21527 84.5385 0.838709 84.2133 0.496378C83.8881 0.171164 83.4944 0 83.0323 0Z" fill="#FEFEFE"/>
<path d="M100.108 6.62244C99.1497 6.11572 98.0847 5.87109 96.8776 5.87109C95.6706 5.87109 94.6943 6.11572 93.7536 6.62244C93.2565 6.90201 92.8128 7.21652 92.4223 7.60093V7.32136C92.4223 6.91948 92.298 6.60497 92.0495 6.36034C91.801 6.11572 91.4815 5.99341 91.0732 5.99341C90.665 5.99341 90.3632 6.11572 90.1147 6.36034C89.8662 6.60497 89.7419 6.91948 89.7419 7.32136V18.8187C89.7419 19.2031 89.8662 19.5176 90.1147 19.7622C90.3632 20.0068 90.6827 20.1292 91.0732 20.1292C91.4637 20.1292 91.801 20.0068 92.0495 19.7622C92.298 19.5176 92.4223 19.2031 92.4223 18.8187V11.5499C92.4223 10.9208 92.5998 10.3442 92.937 9.85496C93.292 9.36572 93.7535 8.98131 94.3571 8.68427C94.9428 8.38722 95.6173 8.24744 96.3451 8.24744C97.0729 8.24744 97.8539 8.4047 98.4752 8.70174C99.0964 8.99878 99.5934 9.47056 99.9485 10.0821C100.303 10.6937 100.499 11.4974 100.499 12.4759V18.8187C100.499 19.2031 100.623 19.5176 100.871 19.7622C101.12 20.0068 101.44 20.1292 101.83 20.1292C102.221 20.1292 102.54 20.0068 102.789 19.7622C103.037 19.5176 103.161 19.2031 103.161 18.8187V12.4759C103.161 11.0431 102.877 9.85497 102.345 8.859C101.795 7.8805 101.049 7.12916 100.09 6.62244H100.108Z" fill="#FEFEFE"/>
<path d="M109.871 0C109.409 0 109.032 0.171164 108.69 0.496378C108.365 0.821592 108.194 1.21527 108.194 1.67742C108.194 2.13956 108.365 2.51613 108.69 2.85846C109.015 3.20079 109.409 3.35484 109.871 3.35484C110.333 3.35484 110.71 3.18367 111.052 2.85846C111.394 2.53325 111.548 2.13956 111.548 1.67742C111.548 1.21527 111.377 0.838709 111.052 0.496378C110.727 0.171164 110.333 0 109.871 0Z" fill="#FEFEFE"/>
<path d="M110.282 5.87109C109.915 5.87109 109.615 5.99477 109.382 6.24212C109.149 6.48947 109.032 6.8075 109.032 7.21386V18.8041C109.032 19.1928 109.149 19.5108 109.382 19.7581C109.615 20.0055 109.915 20.1292 110.282 20.1292C110.649 20.1292 110.965 20.0055 111.198 19.7581C111.432 19.5108 111.548 19.1928 111.548 18.8041V7.21386C111.548 6.8075 111.432 6.48947 111.198 6.24212C110.965 5.99477 110.665 5.87109 110.282 5.87109Z" fill="#FEFEFE"/>
<path d="M127.989 18.1137L123.018 12.0354L127.745 7.84466C128.007 7.60222 128.146 7.34246 128.164 7.03075C128.164 6.71905 128.076 6.44197 127.832 6.18221C127.605 5.92246 127.344 5.78392 127.03 5.7666C126.716 5.7666 126.419 5.85319 126.175 6.09563L119.931 11.6371V1.24683C119.931 0.865856 119.809 0.571465 119.582 0.346343C119.355 0.12122 119.042 0 118.675 0C118.309 0 117.995 0.12122 117.768 0.346343C117.542 0.571465 117.419 0.883173 117.419 1.24683V18.7025C117.419 19.0835 117.542 19.3779 117.768 19.603C117.995 19.8281 118.309 19.9493 118.675 19.9493C119.042 19.9493 119.355 19.8281 119.582 19.603C119.809 19.3779 119.931 19.0662 119.931 18.7025V14.8061L121.204 13.6632L126.105 19.6723C126.332 19.9493 126.611 20.0879 126.943 20.1225C127.274 20.1571 127.588 20.0532 127.85 19.8281C128.146 19.5857 128.303 19.3086 128.321 18.9969C128.338 18.6852 128.251 18.3908 128.024 18.1137H127.989Z" fill="#FEFEFE"/>
</svg>
