<svg width="34" height="34" viewBox="0 0 34 34" fill="none" xmlns="http://www.w3.org/2000/svg">
<path fill-rule="evenodd" clip-rule="evenodd" d="M5.5914 11.1826H11.1828V18.7021C11.1828 20.7178 9.53517 22.3654 7.51947 22.3654H5.5914C2.50649 22.3654 0 19.8589 0 16.774C0 13.6891 2.50649 11.1826 5.5914 11.1826Z" fill="#003366"/>
<path fill-rule="evenodd" clip-rule="evenodd" d="M21.1562 11.1828C22.0151 10.3239 22.3481 9.18461 22.3481 7.94013V5.5914C22.3481 2.50649 19.8416 0 16.7567 0C13.6718 0 11.1653 2.50649 11.1653 5.5914V18.7023C11.1653 20.718 9.51766 22.3656 7.50195 22.3656H7.92262C9.2898 22.3656 10.4642 21.8748 11.4282 20.9108L21.1387 11.1828H21.1562Z" fill="#579AF2"/>
<path fill-rule="evenodd" clip-rule="evenodd" d="M27.957 22.3654H22.3656V14.5129C22.3656 12.6725 23.873 11.1826 25.6959 11.1826H27.957C31.0419 11.1826 33.5484 13.6891 33.5484 16.774C33.5484 19.8589 31.0419 22.3654 27.957 22.3654Z" fill="#579AF2"/>
<path fill-rule="evenodd" clip-rule="evenodd" d="M12.3922 22.3654C11.5333 23.2243 11.2003 24.3636 11.2003 25.6081V27.9568C11.2003 31.0417 13.7068 33.5482 16.7917 33.5482C19.8766 33.5482 22.3831 31.0417 22.3831 27.9568V14.8459C22.3831 12.8302 24.0307 11.1826 26.0464 11.1826H25.6258C24.2586 11.1826 23.0842 11.6734 22.1202 12.6374L12.4097 22.3654H12.3922Z" fill="#003366"/>
<path d="M16.7566 30.5338C17.7828 30.5338 18.6146 29.7019 18.6146 28.6758C18.6146 27.6497 17.7828 26.8179 16.7566 26.8179C15.7305 26.8179 14.8987 27.6497 14.8987 28.6758C14.8987 29.7019 15.7305 30.5338 16.7566 30.5338Z" fill="white"/>
<path d="M28.6756 18.6319C29.7017 18.6319 30.5335 17.8001 30.5335 16.774C30.5335 15.7479 29.7017 14.916 28.6756 14.916C27.6495 14.916 26.8176 15.7479 26.8176 16.774C26.8176 17.8001 27.6495 18.6319 28.6756 18.6319Z" fill="white"/>
</svg>
